<svg xmlns="http://www.w3.org/2000/svg" viewBox="0 0 200 200">
  <defs>
    <linearGradient id="grad1" x1="0%" y1="0%" x2="100%" y2="100%">
      <stop offset="0%" style="stop-color:#13343b;stop-opacity:1" />
      <stop offset="100%" style="stop-color:#f3f3ee;stop-opacity:1" />
    </linearGradient>
  </defs>
  
  <!-- Background circle -->
  <circle cx="100" cy="100" r="90" fill="url(#grad1)" />
  <!-- <circle cx="100" cy="100" r="90" fill="#13343b" /> -->
  
  <!-- Neural network nodes -->
  <circle cx="70" cy="60" r="10" fill="white" />
  <circle cx="130" cy="60" r="10" fill="white" />
  <circle cx="50" cy="100" r="10" fill="white" />
  <circle cx="100" cy="100" r="10" fill="white" />
  <circle cx="150" cy="100" r="10" fill="white" />
  <circle cx="70" cy="140" r="10" fill="white" />
  <circle cx="130" cy="140" r="10" fill="white" />
  
  <!-- Connections -->
  <line x1="70" y1="60" x2="50" y2="100" stroke="white" stroke-width="2" />
  <line x1="70" y1="60" x2="100" y2="100" stroke="white" stroke-width="2" />
  <line x1="70" y1="60" x2="150" y2="100" stroke="white" stroke-width="2" />
  <line x1="130" y1="60" x2="50" y2="100" stroke="white" stroke-width="2" />
  <line x1="130" y1="60" x2="100" y2="100" stroke="white" stroke-width="2" />
  <line x1="130" y1="60" x2="150" y2="100" stroke="white" stroke-width="2" />
  <line x1="50" y1="100" x2="70" y2="140" stroke="white" stroke-width="2" />
  <line x1="50" y1="100" x2="130" y2="140" stroke="white" stroke-width="2" />
  <line x1="100" y1="100" x2="70" y2="140" stroke="white" stroke-width="2" />
  <line x1="100" y1="100" x2="130" y2="140" stroke="white" stroke-width="2" />
  <line x1="150" y1="100" x2="70" y2="140" stroke="white" stroke-width="2" />
  <line x1="150" y1="100" x2="130" y2="140" stroke="white" stroke-width="2" />
</svg>